<mxfile host="app.diagrams.net" modified="2023-04-25T12:44:15.146Z" agent="Mozilla/5.0 (Windows NT 10.0; Win64; x64) AppleWebKit/537.36 (KHTML, like Gecko) Chrome/112.0.0.0 Safari/537.36 Edg/112.0.1722.58" etag="LlHtjU6ohYilnrnwHcQz" version="21.2.1" type="device">
  <diagram name="Page-1" id="IaIJ-q_uUGbP-VwZ3bt0">
    <mxGraphModel dx="1034" dy="501" grid="1" gridSize="10" guides="1" tooltips="1" connect="1" arrows="1" fold="1" page="1" pageScale="1" pageWidth="850" pageHeight="1100" math="0" shadow="0">
      <root>
        <mxCell id="0" />
        <mxCell id="1" parent="0" />
        <mxCell id="bCztx8rFVtjXC47slKtt-9" style="edgeStyle=orthogonalEdgeStyle;rounded=0;orthogonalLoop=1;jettySize=auto;html=1;exitX=0.5;exitY=1;exitDx=0;exitDy=0;" edge="1" parent="1" source="bCztx8rFVtjXC47slKtt-1" target="bCztx8rFVtjXC47slKtt-5">
          <mxGeometry relative="1" as="geometry" />
        </mxCell>
        <mxCell id="bCztx8rFVtjXC47slKtt-1" value="&amp;nbsp;the model checks whether the ball has hit anything" style="rounded=0;whiteSpace=wrap;html=1;fillColor=#D5E8D4;" vertex="1" parent="1">
          <mxGeometry x="440" y="40" width="120" height="60" as="geometry" />
        </mxCell>
        <mxCell id="bCztx8rFVtjXC47slKtt-20" style="edgeStyle=orthogonalEdgeStyle;rounded=0;orthogonalLoop=1;jettySize=auto;html=1;exitX=0.5;exitY=1;exitDx=0;exitDy=0;" edge="1" parent="1" source="bCztx8rFVtjXC47slKtt-2" target="bCztx8rFVtjXC47slKtt-15">
          <mxGeometry relative="1" as="geometry" />
        </mxCell>
        <mxCell id="bCztx8rFVtjXC47slKtt-2" value="User presses key" style="shape=parallelogram;perimeter=parallelogramPerimeter;whiteSpace=wrap;html=1;fixedSize=1;fillColor=#A9C4EB;" vertex="1" parent="1">
          <mxGeometry x="120" y="40" width="120" height="60" as="geometry" />
        </mxCell>
        <mxCell id="bCztx8rFVtjXC47slKtt-10" style="edgeStyle=orthogonalEdgeStyle;rounded=0;orthogonalLoop=1;jettySize=auto;html=1;exitX=0.5;exitY=1;exitDx=0;exitDy=0;entryX=0.5;entryY=0;entryDx=0;entryDy=0;" edge="1" parent="1" source="bCztx8rFVtjXC47slKtt-5" target="bCztx8rFVtjXC47slKtt-6">
          <mxGeometry relative="1" as="geometry" />
        </mxCell>
        <mxCell id="bCztx8rFVtjXC47slKtt-5" value="Model updates the GameObj Cards and the Score.&amp;nbsp;" style="rounded=0;whiteSpace=wrap;html=1;fillColor=#D5E8D4;" vertex="1" parent="1">
          <mxGeometry x="440" y="140" width="120" height="60" as="geometry" />
        </mxCell>
        <mxCell id="bCztx8rFVtjXC47slKtt-11" style="edgeStyle=orthogonalEdgeStyle;rounded=0;orthogonalLoop=1;jettySize=auto;html=1;exitX=0.5;exitY=1;exitDx=0;exitDy=0;" edge="1" parent="1" source="bCztx8rFVtjXC47slKtt-6" target="bCztx8rFVtjXC47slKtt-7">
          <mxGeometry relative="1" as="geometry" />
        </mxCell>
        <mxCell id="bCztx8rFVtjXC47slKtt-6" value="Model tells view something has changed." style="rounded=0;whiteSpace=wrap;html=1;fillColor=#D5E8D4;" vertex="1" parent="1">
          <mxGeometry x="440" y="240" width="120" height="60" as="geometry" />
        </mxCell>
        <mxCell id="bCztx8rFVtjXC47slKtt-12" style="edgeStyle=orthogonalEdgeStyle;rounded=0;orthogonalLoop=1;jettySize=auto;html=1;exitX=0.5;exitY=1;exitDx=0;exitDy=0;entryX=0.582;entryY=0.019;entryDx=0;entryDy=0;entryPerimeter=0;" edge="1" parent="1" source="bCztx8rFVtjXC47slKtt-7" target="bCztx8rFVtjXC47slKtt-8">
          <mxGeometry relative="1" as="geometry" />
        </mxCell>
        <mxCell id="bCztx8rFVtjXC47slKtt-7" value="View gets GameObj cards and Score" style="rounded=0;whiteSpace=wrap;html=1;fillColor=#D5E8D4;" vertex="1" parent="1">
          <mxGeometry x="440" y="340" width="120" height="60" as="geometry" />
        </mxCell>
        <mxCell id="bCztx8rFVtjXC47slKtt-13" style="edgeStyle=orthogonalEdgeStyle;rounded=0;orthogonalLoop=1;jettySize=auto;html=1;exitX=0;exitY=0.5;exitDx=0;exitDy=0;entryX=0;entryY=0.5;entryDx=0;entryDy=0;" edge="1" parent="1" source="bCztx8rFVtjXC47slKtt-8" target="bCztx8rFVtjXC47slKtt-1">
          <mxGeometry relative="1" as="geometry">
            <Array as="points">
              <mxPoint x="350" y="475" />
              <mxPoint x="350" y="70" />
            </Array>
          </mxGeometry>
        </mxCell>
        <mxCell id="bCztx8rFVtjXC47slKtt-14" value="50Hz" style="edgeLabel;html=1;align=center;verticalAlign=middle;resizable=0;points=[];" vertex="1" connectable="0" parent="bCztx8rFVtjXC47slKtt-13">
          <mxGeometry x="0.0759" y="-1" relative="1" as="geometry">
            <mxPoint as="offset" />
          </mxGeometry>
        </mxCell>
        <mxCell id="bCztx8rFVtjXC47slKtt-8" value="View completely redraws the screen" style="shape=parallelogram;perimeter=parallelogramPerimeter;whiteSpace=wrap;html=1;fixedSize=1;fillColor=#A9C4EB;" vertex="1" parent="1">
          <mxGeometry x="425" y="440" width="130" height="70" as="geometry" />
        </mxCell>
        <mxCell id="bCztx8rFVtjXC47slKtt-21" style="edgeStyle=orthogonalEdgeStyle;rounded=0;orthogonalLoop=1;jettySize=auto;html=1;exitX=0.5;exitY=1;exitDx=0;exitDy=0;entryX=0.5;entryY=0;entryDx=0;entryDy=0;" edge="1" parent="1" source="bCztx8rFVtjXC47slKtt-15" target="bCztx8rFVtjXC47slKtt-16">
          <mxGeometry relative="1" as="geometry" />
        </mxCell>
        <mxCell id="bCztx8rFVtjXC47slKtt-15" value="View tells controller that key has been pressed" style="rounded=0;whiteSpace=wrap;html=1;fillColor=#D5E8D4;" vertex="1" parent="1">
          <mxGeometry x="120" y="140" width="120" height="60" as="geometry" />
        </mxCell>
        <mxCell id="bCztx8rFVtjXC47slKtt-22" style="edgeStyle=orthogonalEdgeStyle;rounded=0;orthogonalLoop=1;jettySize=auto;html=1;exitX=0.5;exitY=1;exitDx=0;exitDy=0;entryX=0.5;entryY=0;entryDx=0;entryDy=0;" edge="1" parent="1" source="bCztx8rFVtjXC47slKtt-16" target="bCztx8rFVtjXC47slKtt-17">
          <mxGeometry relative="1" as="geometry" />
        </mxCell>
        <mxCell id="bCztx8rFVtjXC47slKtt-16" value="Controller tells model that action (key) is required" style="rounded=0;whiteSpace=wrap;html=1;fillColor=#D5E8D4;" vertex="1" parent="1">
          <mxGeometry x="120" y="240" width="120" height="60" as="geometry" />
        </mxCell>
        <mxCell id="bCztx8rFVtjXC47slKtt-23" style="edgeStyle=orthogonalEdgeStyle;rounded=0;orthogonalLoop=1;jettySize=auto;html=1;exitX=0.5;exitY=1;exitDx=0;exitDy=0;entryX=0.5;entryY=0;entryDx=0;entryDy=0;" edge="1" parent="1" source="bCztx8rFVtjXC47slKtt-17" target="bCztx8rFVtjXC47slKtt-18">
          <mxGeometry relative="1" as="geometry" />
        </mxCell>
        <mxCell id="bCztx8rFVtjXC47slKtt-17" value="Model does action (key)" style="rounded=0;whiteSpace=wrap;html=1;fillColor=#D5E8D4;" vertex="1" parent="1">
          <mxGeometry x="120" y="340" width="120" height="60" as="geometry" />
        </mxCell>
        <mxCell id="bCztx8rFVtjXC47slKtt-24" style="edgeStyle=orthogonalEdgeStyle;rounded=0;orthogonalLoop=1;jettySize=auto;html=1;exitX=1;exitY=0.5;exitDx=0;exitDy=0;entryX=1;entryY=0.5;entryDx=0;entryDy=0;" edge="1" parent="1" source="bCztx8rFVtjXC47slKtt-18" target="bCztx8rFVtjXC47slKtt-6">
          <mxGeometry relative="1" as="geometry">
            <Array as="points">
              <mxPoint x="240" y="550" />
              <mxPoint x="580" y="550" />
              <mxPoint x="580" y="270" />
            </Array>
          </mxGeometry>
        </mxCell>
        <mxCell id="bCztx8rFVtjXC47slKtt-18" value="Model updates appropriate card" style="rounded=0;whiteSpace=wrap;html=1;fillColor=#D5E8D4;" vertex="1" parent="1">
          <mxGeometry x="120" y="440" width="120" height="60" as="geometry" />
        </mxCell>
      </root>
    </mxGraphModel>
  </diagram>
</mxfile>
